<svg width="124" height="125" viewBox="0 0 124 125" fill="none" xmlns="http://www.w3.org/2000/svg">
<rect y="0.5" width="124" height="124" fill="#262222"/>
<circle cx="33.2422" cy="68.2735" r="0.5" transform="rotate(-4 33.2422 68.2735)" fill="white"/>
<circle cx="65.7221" cy="74.0215" r="0.5" transform="rotate(-4 65.7221 74.0215)" fill="white"/>
<circle cx="74.2607" cy="81.4444" r="0.5" transform="rotate(-4 74.2607 81.4444)" fill="white"/>
<circle cx="79.3882" cy="83.0904" r="0.5" transform="rotate(-4 79.3882 83.0904)" fill="white"/>
<circle cx="93.675" cy="58.0328" r="0.5" transform="rotate(-4 93.675 58.0328)" fill="white"/>
<circle cx="78.1533" cy="51.0987" r="0.5" transform="rotate(-4 78.1533 51.0987)" fill="white"/>
<circle cx="53.7724" cy="60.8233" r="0.5" transform="rotate(-4 53.7724 60.8233)" fill="white"/>
<circle cx="95.3491" cy="81.9746" r="0.5" transform="rotate(-4 95.3491 81.9746)" fill="white"/>
<circle cx="48.0241" cy="93.3033" r="0.5" transform="rotate(-4 48.0241 93.3033)" fill="white"/>
<circle cx="80.5041" cy="99.0518" r="0.5" transform="rotate(-4 80.5041 99.0518)" fill="white"/>
<circle cx="24.6406" cy="102.958" r="0.5" transform="rotate(-4 24.6406 102.958)" fill="white"/>
<circle cx="108.52" cy="40.9556" r="0.5" transform="rotate(-4 108.52 40.9556)" fill="white"/>
<circle cx="66.9431" cy="19.8047" r="0.5" transform="rotate(-4 66.9431 19.8047)" fill="white"/>
<circle cx="26.4824" cy="14.6143" r="0.5" transform="rotate(-4 26.4824 14.6143)" fill="white"/>
<circle cx="12.7536" cy="47.6524" r="0.5" transform="rotate(-4 12.7536 47.6524)" fill="white"/>
<circle cx="98.3071" cy="9.59183" r="0.5" transform="rotate(-4 98.3071 9.59183)" fill="white"/>
<circle cx="112.984" cy="104.8" r="0.5" transform="rotate(-4 112.984 104.8)" fill="white"/>
<circle cx="97.5813" cy="113.897" r="0.5" transform="rotate(-4 97.5813 113.897)" fill="white"/>
<circle cx="9.99802" cy="79.9234" r="0.5" transform="rotate(-4 9.99802 79.9234)" fill="white"/>
</svg>
