<svg width="125" height="124" viewBox="0 0 125 124" fill="none" xmlns="http://www.w3.org/2000/svg">
<rect x="0.677002" y="0.000244141" width="124" height="124" fill="black"/>
<circle cx="33.9192" cy="67.7737" r="0.5" transform="rotate(-4 33.9192 67.7737)" fill="white"/>
<circle cx="66.3991" cy="73.522" r="0.5" transform="rotate(-4 66.3991 73.522)" fill="white"/>
<circle cx="74.9377" cy="80.9444" r="0.5" transform="rotate(-4 74.9377 80.9444)" fill="white"/>
<circle cx="80.0652" cy="82.5909" r="0.5" transform="rotate(-4 80.0652 82.5909)" fill="white"/>
<circle cx="94.352" cy="57.5332" r="0.5" transform="rotate(-4 94.352 57.5332)" fill="white"/>
<circle cx="78.8303" cy="50.5989" r="0.5" transform="rotate(-4 78.8303 50.5989)" fill="white"/>
<circle cx="54.4494" cy="60.3235" r="0.5" transform="rotate(-4 54.4494 60.3235)" fill="white"/>
<circle cx="96.0261" cy="81.4746" r="0.5" transform="rotate(-4 96.0261 81.4746)" fill="white"/>
<circle cx="48.7011" cy="92.8035" r="0.5" transform="rotate(-4 48.7011 92.8035)" fill="white"/>
<circle cx="81.1811" cy="98.5518" r="0.5" transform="rotate(-4 81.1811 98.5518)" fill="white"/>
<circle cx="25.3176" cy="102.458" r="0.5" transform="rotate(-4 25.3176 102.458)" fill="white"/>
<circle cx="109.197" cy="40.4561" r="0.5" transform="rotate(-4 109.197 40.4561)" fill="white"/>
<circle cx="67.6201" cy="19.3047" r="0.5" transform="rotate(-4 67.6201 19.3047)" fill="white"/>
<circle cx="27.1594" cy="14.1145" r="0.5" transform="rotate(-4 27.1594 14.1145)" fill="white"/>
<circle cx="13.4306" cy="47.1526" r="0.5" transform="rotate(-4 13.4306 47.1526)" fill="white"/>
<circle cx="98.9841" cy="9.09208" r="0.5" transform="rotate(-4 98.9841 9.09208)" fill="white"/>
<circle cx="113.661" cy="104.3" r="0.5" transform="rotate(-4 113.661 104.3)" fill="white"/>
<circle cx="98.2583" cy="113.397" r="0.5" transform="rotate(-4 98.2583 113.397)" fill="white"/>
<circle cx="10.675" cy="79.4234" r="0.5" transform="rotate(-4 10.675 79.4234)" fill="white"/>
</svg>
