<svg width="125" height="124" viewBox="0 0 125 124" fill="none" xmlns="http://www.w3.org/2000/svg">
<rect x="0.677002" y="0.000244141" width="124" height="124" fill="black"/>
<path d="M111.979 73.753C115.005 78.3732 112.194 98.4694 105.377 102.934C98.5594 107.4 85.7567 102.283 82.7307 97.6628C79.7048 93.0427 89.9348 94.231 96.7523 89.766C103.57 85.3009 108.953 69.1329 111.979 73.753Z" fill="#222122"/>
<circle cx="35.177" cy="67.5002" r="0.5" fill="white"/>
<circle cx="67.177" cy="75.5002" r="0.5" fill="white"/>
<circle cx="41.6697" cy="90.5859" r="0.5" fill="white"/>
<circle cx="56.177" cy="22.5002" r="0.5" fill="white"/>
<circle cx="36.177" cy="49.5002" r="0.5" fill="white"/>
<circle cx="11.677" cy="12.5002" r="0.5" fill="white"/>
<circle cx="37.177" cy="117.5" r="0.5" fill="white"/>
<circle cx="10.177" cy="121.288" r="0.5" fill="white"/>
<circle cx="121.023" cy="74.5002" r="0.5" fill="white"/>
<circle cx="80.177" cy="85.5002" r="0.5" fill="white"/>
<circle cx="96.177" cy="61.5002" r="0.5" fill="white"/>
<circle cx="81.177" cy="53.5002" r="0.5" fill="white"/>
<circle cx="56.177" cy="61.5002" r="0.5" fill="white"/>
<circle cx="96.177" cy="85.5002" r="0.5" fill="white"/>
<circle cx="48.177" cy="93.5002" r="0.5" fill="white"/>
<circle cx="80.177" cy="101.5" r="0.5" fill="white"/>
<circle cx="24.177" cy="101.5" r="0.5" fill="white"/>
<circle cx="112.177" cy="45.5002" r="0.5" fill="white"/>
<circle cx="72.177" cy="21.5002" r="0.5" fill="white"/>
<circle cx="32.177" cy="13.5002" r="0.5" fill="white"/>
<circle cx="16.177" cy="45.5002" r="0.5" fill="white"/>
<circle cx="104.177" cy="13.5002" r="0.5" fill="white"/>
<circle cx="112.177" cy="109.5" r="0.5" fill="white"/>
<circle cx="96.177" cy="117.5" r="0.5" fill="white"/>
<circle cx="11.177" cy="77.5002" r="0.5" fill="white"/>
</svg>
