<svg width="125" height="125" viewBox="0 0 125 125" fill="none" xmlns="http://www.w3.org/2000/svg">
<rect x="0.456787" y="0.5" width="124" height="124" fill="#262222"/>
<circle cx="34.9568" cy="68" r="0.5" fill="white"/>
<circle cx="66.9568" cy="76" r="0.5" fill="white"/>
<circle cx="41.4495" cy="91.0859" r="0.5" fill="white"/>
<circle cx="55.9568" cy="23" r="0.5" fill="white"/>
<circle cx="35.9568" cy="50" r="0.5" fill="white"/>
<circle cx="11.4568" cy="13" r="0.5" fill="white"/>
<circle cx="36.9568" cy="118" r="0.5" fill="white"/>
<circle cx="9.95679" cy="121.787" r="0.5" fill="white"/>
<circle cx="120.803" cy="75" r="0.5" fill="white"/>
<circle cx="79.9568" cy="86" r="0.5" fill="white"/>
<circle cx="95.9568" cy="62" r="0.5" fill="white"/>
<circle cx="80.9568" cy="54" r="0.5" fill="white"/>
<circle cx="55.9568" cy="62" r="0.5" fill="white"/>
<circle cx="95.9568" cy="86" r="0.5" fill="white"/>
<circle cx="47.9568" cy="94" r="0.5" fill="white"/>
<circle cx="79.9568" cy="102" r="0.5" fill="white"/>
<circle cx="23.9568" cy="102" r="0.5" fill="white"/>
<circle cx="111.957" cy="46" r="0.5" fill="white"/>
<circle cx="71.9568" cy="22" r="0.5" fill="white"/>
<circle cx="31.9568" cy="14" r="0.5" fill="white"/>
<circle cx="15.9568" cy="46" r="0.5" fill="white"/>
<circle cx="103.957" cy="14" r="0.5" fill="white"/>
<circle cx="111.957" cy="110" r="0.5" fill="white"/>
<circle cx="95.9568" cy="118" r="0.5" fill="white"/>
<circle cx="10.9568" cy="78" r="0.5" fill="white"/>
</svg>
