<svg width="125" height="124" viewBox="0 0 125 124" fill="none" xmlns="http://www.w3.org/2000/svg">
<rect x="0.677002" y="0.000244141" width="124" height="124" fill="black"/>
<circle cx="35.177" cy="67.5002" r="0.5" fill="white"/>
<circle cx="67.177" cy="75.5002" r="0.5" fill="white"/>
<circle cx="75.177" cy="83.5002" r="0.5" fill="white"/>
<circle cx="80.177" cy="85.5002" r="0.5" fill="white"/>
<circle cx="96.177" cy="61.5002" r="0.5" fill="white"/>
<circle cx="81.177" cy="53.5002" r="0.5" fill="white"/>
<circle cx="56.177" cy="61.5002" r="0.5" fill="white"/>
<circle cx="96.177" cy="85.5002" r="0.5" fill="white"/>
<circle cx="48.177" cy="93.5002" r="0.5" fill="white"/>
<circle cx="80.177" cy="101.5" r="0.5" fill="white"/>
<circle cx="24.177" cy="101.5" r="0.5" fill="white"/>
<circle cx="112.177" cy="45.5002" r="0.5" fill="white"/>
<circle cx="72.177" cy="21.5002" r="0.5" fill="white"/>
<circle cx="32.177" cy="13.5002" r="0.5" fill="white"/>
<circle cx="16.177" cy="45.5002" r="0.5" fill="white"/>
<circle cx="104.177" cy="13.5002" r="0.5" fill="white"/>
<circle cx="112.177" cy="109.5" r="0.5" fill="white"/>
<circle cx="96.177" cy="117.5" r="0.5" fill="white"/>
<circle cx="11.177" cy="77.5002" r="0.5" fill="white"/>
</svg>
