<svg width="124" height="125" viewBox="0 0 124 125" fill="none" xmlns="http://www.w3.org/2000/svg">
<rect y="0.5" width="124" height="124" fill="#262222"/>
<ellipse cx="40.9606" cy="76.3989" rx="0.492506" ry="0.469012" transform="rotate(102 40.9606 76.3989)" fill="white"/>
<ellipse cx="59.7045" cy="96.4956" rx="0.492506" ry="0.469012" transform="rotate(102 59.7045 96.4956)" fill="white"/>
<ellipse cx="70.1166" cy="83.6035" rx="0.492506" ry="0.469012" transform="rotate(102 70.1166 83.6035)" fill="white"/>
<ellipse cx="67.8964" cy="57.956" rx="0.492506" ry="0.469012" transform="rotate(102 67.8964 57.956)" fill="white"/>
<ellipse cx="40.1737" cy="44.0073" rx="0.492506" ry="0.469012" transform="rotate(102 40.1737 44.0073)" fill="white"/>
<ellipse cx="26.2801" cy="73.2788" rx="0.492506" ry="0.469012" transform="rotate(102 26.2801 73.2788)" fill="white"/>
<ellipse cx="37.7489" cy="19.3232" rx="0.492506" ry="0.469012" transform="rotate(102 37.7489 19.3232)" fill="white"/>
<ellipse cx="101.321" cy="81.1728" rx="0.492506" ry="0.469012" transform="rotate(102 101.321 81.1728)" fill="white"/>
<ellipse cx="110.866" cy="45.0766" rx="0.492506" ry="0.469012" transform="rotate(102 110.866 45.0766)" fill="white"/>
<ellipse cx="90.7684" cy="22.5371" rx="0.492506" ry="0.469012" transform="rotate(102 90.7684 22.5371)" fill="white"/>
<ellipse cx="102.108" cy="113.565" rx="0.492506" ry="0.469012" transform="rotate(102 102.108 113.565)" fill="white"/>
<ellipse cx="12.3863" cy="102.55" rx="0.492506" ry="0.469012" transform="rotate(102 12.3863 102.55)" fill="white"/>
<ellipse cx="62.4315" cy="11.4785" rx="0.492506" ry="0.469012" transform="rotate(102 62.4315 11.4785)" fill="white"/>
</svg>
