<svg width="125" height="124" viewBox="0 0 125 124" fill="none" xmlns="http://www.w3.org/2000/svg">
<rect x="0.677002" y="0.000244141" width="124" height="124" fill="black"/>
<ellipse cx="41.6376" cy="75.8991" rx="0.492506" ry="0.469012" transform="rotate(102 41.6376 75.8991)" fill="white"/>
<ellipse cx="60.3815" cy="95.9958" rx="0.492506" ry="0.469012" transform="rotate(102 60.3815 95.9958)" fill="white"/>
<ellipse cx="70.7936" cy="83.1035" rx="0.492506" ry="0.469012" transform="rotate(102 70.7936 83.1035)" fill="white"/>
<ellipse cx="68.5734" cy="57.4563" rx="0.492506" ry="0.469012" transform="rotate(102 68.5734 57.4563)" fill="white"/>
<ellipse cx="40.8507" cy="43.5075" rx="0.492506" ry="0.469012" transform="rotate(102 40.8507 43.5075)" fill="white"/>
<ellipse cx="26.9571" cy="72.779" rx="0.492506" ry="0.469012" transform="rotate(102 26.9571 72.779)" fill="white"/>
<ellipse cx="38.4259" cy="18.8237" rx="0.492506" ry="0.469012" transform="rotate(102 38.4259 18.8237)" fill="white"/>
<ellipse cx="101.998" cy="80.673" rx="0.492506" ry="0.469012" transform="rotate(102 101.998 80.673)" fill="white"/>
<ellipse cx="111.543" cy="44.5769" rx="0.492506" ry="0.469012" transform="rotate(102 111.543 44.5769)" fill="white"/>
<ellipse cx="91.4454" cy="22.0373" rx="0.492506" ry="0.469012" transform="rotate(102 91.4454 22.0373)" fill="white"/>
<ellipse cx="102.785" cy="113.065" rx="0.492506" ry="0.469012" transform="rotate(102 102.785 113.065)" fill="white"/>
<ellipse cx="13.0634" cy="102.05" rx="0.492506" ry="0.469012" transform="rotate(102 13.0634 102.05)" fill="white"/>
<ellipse cx="63.1085" cy="10.979" rx="0.492506" ry="0.469012" transform="rotate(102 63.1085 10.979)" fill="white"/>
</svg>
