<svg width="1200" height="1000" viewBox="0 0 1200 1000" fill="none" xmlns="http://www.w3.org/2000/svg">
<path d="M1105.77 87.9458C1061.74 119.004 1012.99 142.758 961.395 158.294C933.704 126.454 896.902 103.886 855.967 93.6438C815.032 83.4012 771.938 85.9776 732.515 101.025C693.092 116.072 659.241 142.863 635.541 177.776C611.841 212.688 599.434 254.038 600 296.231V342.21C519.198 344.305 439.132 326.385 366.933 290.044C294.733 253.704 232.642 200.072 186.189 133.925C186.189 133.925 2.27237 547.736 416.084 731.652C321.391 795.93 208.588 828.159 94.2305 823.611C508.042 1053.51 1013.81 823.611 1013.81 294.851C1013.77 282.044 1012.54 269.268 1010.13 256.689C1057.06 210.411 1090.17 151.981 1105.77 87.9458Z" fill="white"/>
</svg>
